<svg width="24" height="24" viewBox="0 0 24 24" fill="none" xmlns="http://www.w3.org/2000/svg">
  <path d="M19.97 21.11L16.92 18.06C15.4 19.23 13.75 19.94 12 19.94C7.45 19.94 3.57 17.04 2 12.94C2.62 10.79 3.84 8.97 5.46 7.63L3 5.18L4.41 3.77L21.38 20.74L19.97 21.11ZM12 6.94C9.24 6.94 7 9.17 7 11.94C7 12.9 7.29 13.8 7.78 14.54L5.76 12.51C5.01 11.37 4.51 10.11 4.37 8.93C6.08 7.53 8.95 5.94 12 5.94C13.2 5.94 14.39 6.21 15.51 6.68L13.37 8.82C12.91 8.29 12.47 8.01 12 6.94ZM12 14.94C13.67 14.94 15 13.61 15 11.94C15 11.47 14.89 11.03 14.7 10.65L11.51 13.84C11.88 14.43 12.4 14.94 12 14.94ZM9.04 8.17C9.57 7.75 10.26 7.51 11 7.51C12.7 7.51 14.04 8.85 14.04 10.51C14.04 11.79 13.29 12.89 12.19 13.32L10.04 11.23C10.04 11.22 10.04 11.21 10.04 11.21V10.01H8.84C8.83 10.01 8.83 10.01 8.82 10.01L7.3 8.5C7.83 8.34 8.42 8.2 9.04 8.17ZM17.85 14.9C19.21 13.72 20.2 12.23 20.64 10.94C19.2 8.01 15.68 5.94 12 5.94V4.94C16.4 4.94 20.4 7.72 22 11.94C21.29 13.91 19.96 15.58 18.31 16.8L17.85 14.9Z" fill="#64748B"/>
</svg>