<svg width="40" height="40" viewBox="0 0 40 40" fill="none" xmlns="http://www.w3.org/2000/svg">
  <rect width="40" height="40" rx="8" fill="#1A56DB"/>
  <path d="M20 8C13.3726 8 8 13.3726 8 20C8 26.6274 13.3726 32 20 32C26.6274 32 32 26.6274 32 20C32 13.3726 26.6274 8 20 8ZM20 30C14.4772 30 10 25.5228 10 20C10 14.4772 14.4772 10 20 10C25.5228 10 30 14.4772 30 20C30 25.5228 25.5228 30 20 30Z" fill="white"/>
  <path d="M20 14C16.6863 14 14 16.6863 14 20C14 23.3137 16.6863 26 20 26C23.3137 26 26 23.3137 26 20C26 16.6863 23.3137 14 20 14ZM20 24C17.7909 24 16 22.2091 16 20C16 17.7909 17.7909 16 20 16C22.2091 16 24 17.7909 24 20C24 22.2091 22.2091 24 20 24Z" fill="white"/>
  <circle cx="20" cy="20" r="4" fill="white"/>
</svg>