<svg width="600" height="400" viewBox="0 0 600 400" fill="none" xmlns="http://www.w3.org/2000/svg">
  <rect width="600" height="400" rx="16" fill="#1E293B"/>
  <rect x="40" y="40" width="520" height="320" rx="12" fill="#0F172A"/>
  
  <!-- Facebook card -->
  <rect x="60" y="120" width="140" height="100" rx="8" fill="#1E40AF" opacity="0.7"/>
  <rect x="80" y="140" width="40" height="40" rx="20" fill="#3B82F6"/>
  <rect x="130" y="140" width="50" height="6" rx="3" fill="white" opacity="0.8"/>
  <rect x="130" y="156" width="30" height="6" rx="3" fill="white" opacity="0.6"/>
  <rect x="130" y="172" width="40" height="6" rx="3" fill="white" opacity="0.6"/>
  
  <!-- Twitter card -->
  <rect x="220" y="120" width="140" height="100" rx="8" fill="#0284C7" opacity="0.7"/>
  <rect x="240" y="140" width="40" height="40" rx="20" fill="#0EA5E9"/>
  <rect x="290" y="140" width="50" height="6" rx="3" fill="white" opacity="0.8"/>
  <rect x="290" y="156" width="30" height="6" rx="3" fill="white" opacity="0.6"/>
  <rect x="290" y="172" width="40" height="6" rx="3" fill="white" opacity="0.6"/>
  
  <!-- TikTok card -->
  <rect x="380" y="120" width="140" height="100" rx="8" fill="#701A75" opacity="0.7"/>
  <rect x="400" y="140" width="40" height="40" rx="8" fill="#EC4899"/>
  <rect x="450" y="140" width="50" height="6" rx="3" fill="white" opacity="0.8"/>
  <rect x="450" y="156" width="30" height="6" rx="3" fill="white" opacity="0.6"/>
  <rect x="450" y="172" width="40" height="6" rx="3" fill="white" opacity="0.6"/>
  
  <!-- Youtube card -->
  <rect x="220" y="240" width="140" height="100" rx="8" fill="#B91C1C" opacity="0.7"/>
  <rect x="240" y="260" width="40" height="40" rx="8" fill="#EF4444"/>
  <rect x="290" y="260" width="50" height="6" rx="3" fill="white" opacity="0.8"/>
  <rect x="290" y="276" width="30" height="6" rx="3" fill="white" opacity="0.6"/>
  <rect x="290" y="292" width="40" height="6" rx="3" fill="white" opacity="0.6"/>
  
  <!-- Header Text -->
  <rect x="60" y="60" width="200" height="10" rx="5" fill="white" opacity="0.9"/>
  <rect x="60" y="80" width="120" height="8" rx="4" fill="white" opacity="0.6"/>
  
  <!-- Navbar -->
  <rect x="300" y="60" width="60" height="8" rx="4" fill="#3B82F6"/>
  <rect x="380" y="60" width="60" height="8" rx="4" fill="white" opacity="0.6"/>
  <rect x="460" y="60" width="60" height="8" rx="4" fill="white" opacity="0.6"/>
  
  <!-- Pagination -->
  <circle cx="280" cy="370" r="6" fill="#3B82F6"/>
  <circle cx="300" cy="370" r="4" fill="white" opacity="0.3"/>
  <circle cx="320" cy="370" r="4" fill="white" opacity="0.3"/>
</svg>