<svg width="1440" height="900" viewBox="0 0 1440 900" fill="none" xmlns="http://www.w3.org/2000/svg">
  <path d="M1440 0H0V900H1440V0Z" fill="#0F172A"/>
  <path d="M1442 310.5C1254.5 222 1146.5 373 967 354.5C787.5 336 761 159 590 151C419 143 322.5 318.5 143.5 274C-35.5 229.5 -57.5 104.5 -57.5 104.5V900H1442V310.5Z" fill="#1E40AF" fill-opacity="0.1"/>
  <path d="M1442 407.5C1264 321.344 1115.07 411.302 977.5 382C839.935 352.698 727.5 232 608 232C488.5 232 340 368.5 206.5 349C73 329.5 -57.5 168 -57.5 168V900H1442V407.5Z" fill="#1E40AF" fill-opacity="0.1"/>
</svg>